<svg  viewBox="0 0 25 25" preserveAspectRatio="meet" xmlns="http://www.w3.org/2000/svg" xmlns:xlink="http://www.w3.org/1999/xlink">
  <defs>
    <symbol viewBox="0 0 20 20" id="icon-about">
        <g id="Group_2784" data-name="Group 2784" transform="translate(0 -1299)">
            <rect id="Rectangle_311" data-name="Rectangle 311" width="23" height="23" transform="translate(0 1299)" fill="rgba(255,255,255,0)"/>
            <path id="Subtraction_2" data-name="Subtraction 2" d="M8.5,16.5a8,8,0,1,1,8-8A8.009,8.009,0,0,1,8.5,16.5ZM6,6.824v6.061H7.83V9.552a2.1,2.1,0,0,0,1.683.777,2.818,2.818,0,0,0,2.674-3.106A2.846,2.846,0,0,0,9.524,4.117H6v.572A1.176,1.176,0,0,0,7.172,5.864H9.081a1.252,1.252,0,0,1,1.251,1.359A1.252,1.252,0,0,1,9.081,8.582,1.214,1.214,0,0,1,7.844,7.453a.719.719,0,0,0-.191-.414.7.7,0,0,0-.5-.215Z" transform="translate(2.5 1301.5)" stroke="rgba(0,0,0,0)" stroke-width="1"/>
        </g>
    </symbol>
    <symbol id="icon-dashboard">
        <g id="so-menu" transform="translate(-2.5 -2.5)">
            <path id="Path_227" data-name="Path 227" d="M20.222,3.889A.889.889,0,0,0,19.333,3H14V9.222h6.222Z" transform="translate(-1.222)"/>
            <path id="Path_228" data-name="Path 228" d="M9.222,9.222H3V3.889A.889.889,0,0,1,3.889,3H9.222Z" stroke="rgba(0,0,0,0)" stroke-width="1"/>
            <path id="Path_229" data-name="Path 229" d="M3.889,20.222H9.222V14H3v5.333A.889.889,0,0,0,3.889,20.222Z" transform="translate(0 -1.222)"/>
            <path id="Path_230" data-name="Path 230" d="M20.222,19.333V14H14v6.222h5.333A.889.889,0,0,0,20.222,19.333Z" transform="translate(-1.222 -1.222)" stroke="rgba(0,0,0,0)" stroke-width="1"/>
        </g>
    </symbol>
    <symbol>
        <g id="icon-industry-training" data-name="Group 2784" transform="translate(0 -1299)">
            <rect id="Rectangle_311" data-name="Rectangle 311" width="23" height="23" transform="translate(0 1299)" fill="rgba(255,255,255,0)"/>
            <g id="drawer-office" transform="translate(0.5 1300)">
                <path id="Path_277" data-name="Path 277" d="M18.111,2H3.889A.894.894,0,0,0,3,2.9H3V16.378H19V2.9a.894.894,0,0,0-.889-.9ZM13.667,12.783H8.333a.9.9,0,0,1,0-1.8h5.333a.9.9,0,0,1,0,1.8Zm0-5.392H8.333a.9.9,0,0,1,0-1.8h5.333a.9.9,0,0,1,0,1.8Z" transform="translate(0)"/>
                <path id="Path_278" data-name="Path 278" d="M3.85,21.4H6.4a.85.85,0,0,0,.85-.85h0V18.425A.425.425,0,0,1,7.675,18H3v2.55a.85.85,0,0,0,.85.85Z" transform="translate(0 -1.622)" opacity="0.4"/>
                <path id="Path_279" data-name="Path 279" d="M15.5,18a.425.425,0,0,1,.425.425h0V20.55a.85.85,0,0,0,.85.85h2.55a.85.85,0,0,0,.85-.85h0V18Z" transform="translate(-1.175 -1.622)" opacity="0.4"/>
            </g>
        </g>
    </symbol>
    <symbol>
        <g id="icon-materials" data-name="Group 2784" transform="translate(0 -1299)">
            <rect id="Rectangle_311" data-name="Rectangle 311" width="23" height="23" transform="translate(0 1299)" fill="rgba(255,255,255,0)"/>
            <g id="Group_2788" data-name="Group 2788" transform="translate(-1352.428 900.063)">
                <path id="Path_842" data-name="Path 842" d="M5.143-20.563A5.143,5.143,0,0,1,0-25.705a5.145,5.145,0,0,1,3.436-4.854q-.007-.145-.007-.289a5.713,5.713,0,0,1,5.714-5.714A5.713,5.713,0,0,1,14.1-33.7a3.176,3.176,0,0,1,1.9-.579,3.409,3.409,0,0,1,3.429,3.429,3.467,3.467,0,0,1-.229,1.236,4.571,4.571,0,0,1,3.657,4.479,4.571,4.571,0,0,1-4.571,4.571H5.143ZM10.821-23.7A.776.776,0,0,0,12-23.7l.824-.824,2.033-2.033a.776.776,0,0,0,0-1.182.826.826,0,0,0-1.182,0l-.57.571-.823.825v-4.789a.855.855,0,0,0-.857-.857.855.855,0,0,0-.857.857v4.789l-1.425-1.4a.826.826,0,0,0-1.182,0,.826.826,0,0,0,0,1.182Z" transform="translate(1353 439)" stroke="rgba(0,0,0,0)" stroke-width="1"/>
            </g>
        </g>
    </symbol>
    <symbol>
        <g id="icon-my-payarc" width="21.56" height="17.389">
            <path id="Path_1193" data-name="Path 1193" d="M19.675-4.951a4.918,4.918,0,0,0,0-6.957,4.918,4.918,0,0,0-6.338-.524l-.054.037a1.086,1.086,0,0,0-.252,1.517,1.089,1.089,0,0,0,1.517.252l.054-.037a2.738,2.738,0,0,1,3.531.293,2.741,2.741,0,0,1,0,3.878L14.317-2.668a2.741,2.741,0,0,1-3.878,0A2.739,2.739,0,0,1,10.146-6.2l.037-.054a1.088,1.088,0,0,0-.252-1.517,1.092,1.092,0,0,0-1.517.252l-.037.054A4.91,4.91,0,0,0,8.9-1.13a4.918,4.918,0,0,0,6.957,0ZM2-5.747A4.918,4.918,0,0,0,2,1.21a4.918,4.918,0,0,0,6.338.524L8.391,1.7A1.088,1.088,0,0,0,7.125-.072l-.054.037A2.738,2.738,0,0,1,3.54-.327a2.745,2.745,0,0,1,0-3.882l3.817-3.82a2.741,2.741,0,0,1,3.878,0,2.743,2.743,0,0,1,.293,3.535l-.037.054a1.088,1.088,0,0,0,.252,1.517,1.092,1.092,0,0,0,1.517-.252l.037-.054a4.914,4.914,0,0,0-.521-6.338,4.918,4.918,0,0,0-6.957,0Z" transform="translate(-0.057 14.043)" stroke="rgba(0,0,0,0)" stroke-width="1"/>
        </g>
    </symbol>
    <symbol>
        <g id="icon-request-form" data-name="Group 2784" transform="translate(0 -1299)">
            <rect id="Rectangle_311" data-name="Rectangle 311" width="23" height="23" transform="translate(0 1299)" fill="rgba(255,255,255,0)"/>
            <g id="Group_2789" data-name="Group 2789" transform="translate(-67.484 709.766)">
                <path id="Path_1186" data-name="Path 1186" d="M72.485,600.2v-6.32a.571.571,0,0,1,.647-.644H82.2a2.845,2.845,0,0,1,2.854,2.857q0,6.248,0,12.5a.572.572,0,0,1-.647.645q-4.535,0-9.07,0a2.846,2.846,0,0,1-2.853-2.858Q72.483,603.287,72.485,600.2Zm6.285-1.822h.375c.809,0,1.618,0,2.428,0a.572.572,0,0,0,.587-.763.593.593,0,0,0-.606-.379H75.985a1.042,1.042,0,0,0-.107,0,.566.566,0,0,0-.483.793.587.587,0,0,0,.591.348Zm0,2.286c-.94,0-1.88,0-2.821,0a.565.565,0,0,0-.553.806.6.6,0,0,0,.6.337q2.767,0,5.534,0a1.034,1.034,0,0,0,.125,0,.574.574,0,0,0,.495-.357.534.534,0,0,0-.088-.569.6.6,0,0,0-.506-.215Q80.166,600.664,78.774,600.663Zm.014,3.429h-.214c-.869,0-1.737,0-2.606,0a.573.573,0,0,0-.583.778.61.61,0,0,0,.618.364h5.533a1.2,1.2,0,0,0,.125,0,.572.572,0,0,0,.494-.777.6.6,0,0,0-.6-.363Z" stroke="rgba(0,0,0,0)" stroke-width="1"/>
            </g>
        </g>
    </symbol>
    <symbol>
        <g id="icon-tools" data-name="Group 2784" transform="translate(0 -1299)">
            <rect id="Rectangle_311" data-name="Rectangle 311" width="23" height="23" transform="translate(0 1299)" fill="rgba(255,255,255,0)"/>
            <path id="Path_1235" data-name="Path 1235" d="M15.658-9.51,12-13.169A2.32,2.32,0,0,0,9.33-13.6L6-16.935v-1.941l-4-3-2,2,3,4H4.939l3.331,3.331A2.325,2.325,0,0,0,8.7-9.876l3.659,3.659a1.162,1.162,0,0,0,1.647,0l1.647-1.647A1.167,1.167,0,0,0,15.658-9.51Zm-5.293-5.334a3.288,3.288,0,0,1,2.34.969l.606.606a4.423,4.423,0,0,0,1.369-.922,4.494,4.494,0,0,0,1.184-4.272.374.374,0,0,0-.628-.172L12.911-16.31l-2.122-.353-.353-2.122,2.325-2.325a.377.377,0,0,0-.178-.631,4.5,4.5,0,0,0-4.269,1.184,4.428,4.428,0,0,0-1.287,3.237l2.565,2.566A3.4,3.4,0,0,1,10.364-14.844ZM7.117-12.282,5.346-14.054.583-9.288a2,2,0,0,0,0,2.828,2,2,0,0,0,2.828,0l3.862-3.862A3.356,3.356,0,0,1,7.117-12.282ZM2-7.126a.752.752,0,0,1-.75-.75A.748.748,0,0,1,2-8.626a.748.748,0,0,1,.75.75A.75.75,0,0,1,2-7.126Z" transform="translate(4.002 1323.875)" stroke="rgba(0,0,0,0)" stroke-width="1"/>
        </g>
    </symbol>
    <symbol>
        <g id="icon-training" data-name="Group 2784" transform="translate(0 -1299)">
            <rect id="Rectangle_311" data-name="Rectangle 311" width="23" height="23" transform="translate(0 1299)" fill="rgba(255,255,255,0)"/>
            <g id="Group_2787" data-name="Group 2787" transform="translate(2.291 1302.501)">
                <rect id="Rectangle_303" data-name="Rectangle 303" width="18.417" height="2.343" stroke="rgba(0,0,0,0)" stroke-width="1"/>
                <path id="Path_1233" data-name="Path 1233" d="M19.153,50.331v9.082a.51.51,0,0,0,.51.51h7.115v1.685l-1.393.975a.382.382,0,0,0-.094.532l.112.16a.382.382,0,0,0,.532.094l1.322-.926,1.322.926a.382.382,0,0,0,.532-.094l.112-.16a.382.382,0,0,0-.094-.532l-1.393-.975V59.923h7.115a.51.51,0,0,0,.51-.51V50.331Z" transform="translate(-18.053 -47.44)" stroke="rgba(0,0,0,0)" stroke-width="1"/>
            </g>
        </g>
    </symbol>
  </defs>
</svg>